<svg xmlns="http://www.w3.org/2000/svg" viewBox="0 0 32 32">
  <path fill="#47A248" d="M15.9.087l.854 1.604c.192.296.4.558.645.802.715.715 1.394 1.464 2.004 2.266 1.447 1.9 2.423 4.01 3.12 6.292.418 1.394.645 2.824.662 4.27.07 4.323-1.412 8.035-4.4 11.12-.488.488-1.01.94-1.57 1.342-.296 0-.436-.227-.558-.436-.227-.383-.366-.82-.436-1.255-.105-.523-.174-1.046-.14-1.586v-.244C16.057 24.21 15.796.086 15.9.087zm-1.762.174v-.105h-.105c-.436.227-.827.528-1.2.904-.488.488-.93 1.023-1.342 1.58-1.37 1.9-2.308 3.977-2.766 6.292-.14.68-.227 1.394-.105 2.1v.384c.105 3.908 1.6 7.238 4.27 9.98.488.488 1.023.94 1.58 1.342.017 0 .052-.017.07-.053.017-.174.017-.314 0-.488 0-.105-.017-.227-.017-.33v-.21l-.052-16.994c0-.384-.017-.75.034-1.116v-.68l-.034-.436v-.4l-.017-.314V.26z"/>
</svg>

